<?xml version="1.0" encoding="utf-8"?>
<svg width="512px" height="512px" viewBox="0 0 512 512" version="1.1" xmlns:xlink="http://www.w3.org/1999/xlink" xmlns="http://www.w3.org/2000/svg">
  <defs>
    <path d="M512 0L512 0L512 512L0 512L0 0L512 0Z" id="path_1" />
    <clipPath id="clip_1">
      <use xlink:href="#path_1" clip-rule="evenodd" fill-rule="evenodd" />
    </clipPath>
  </defs>
  <g id="Frame">
    <path d="M512 0L512 0L512 512L0 512L0 0L512 0Z" id="Frame" fill="none" stroke="none" />
    <path d="M362.667 138.667C362.667 187.2 297.689 273.689 269.156 309.333C262.311 317.867 249.6 317.867 242.844 309.333C214.311 273.689 149.333 187.2 149.333 138.667C149.333 79.7333 197.067 32 256 32C314.933 32 362.667 79.7333 362.667 138.667L362.667 138.667ZM369.778 210.133C372.889 204 375.733 197.867 378.311 191.822C378.756 190.756 379.2 189.6 379.644 188.533L482.756 147.289C496.8 141.689 512 152 512 167.111L512 407.822C512 416.533 506.667 424.356 498.578 427.644L369.778 479.111L369.778 210.133L369.778 210.133ZM122.311 154.933C124.444 167.467 128.711 180.089 133.689 191.822C136.267 197.867 139.111 204 142.222 210.133L142.222 433.6L29.2444 478.844C15.2 484.444 0 474.133 0 459.022L0 218.311C0 209.6 5.33333 201.778 13.4222 198.489L122.4 154.933L122.311 154.933ZM291.378 327.111C303.733 311.644 323.111 286.489 341.333 258.667L341.333 480.267L170.667 431.467L170.667 258.667C188.889 286.489 208.267 311.644 220.622 327.111C238.844 349.867 273.156 349.867 291.378 327.111L291.378 327.111ZM256 167.111C275.637 167.111 291.556 151.192 291.556 131.556C291.556 111.919 275.637 96 256 96C236.363 96 220.444 111.919 220.444 131.556C220.444 151.192 236.363 167.111 256 167.111L256 167.111Z" id="map" fill="#FFFFFF" fill-rule="evenodd" stroke="none" clip-path="url(#clip_1)" />
  </g>
</svg>