<?xml version="1.0" encoding="utf-8"?>
<svg width="512px" height="512px" viewBox="0 0 512 512" version="1.1" xmlns:xlink="http://www.w3.org/1999/xlink" xmlns="http://www.w3.org/2000/svg">
  <g id="pause">
    <path d="M256 0C114.615 0 0 114.615 0 256C0 397.385 114.615 512 256 512C397.385 512 512 397.385 512 256C512 114.615 397.385 0 256 0ZM256 16C123.452 16 16 123.452 16 256C16 388.548 123.452 496 256 496C388.548 496 496 388.548 496 256C496 123.452 388.548 16 256 16Z" id="Oval-Subtract-Subtract-Subtract" fill="#FFFFFF" fill-rule="evenodd" stroke="none" />
    <path d="M128 267C128 196.308 185.308 139 256 139C326.692 139 384 196.308 384 267C384 337.692 326.692 395 256 395C185.308 395 128 337.692 128 267ZM224 203L240 203L240 331L224 331L224 203ZM288 203L272 203L272 331L288 331L288 203Z" id="Oval-Subtract" fill="#FFFFFF" fill-rule="evenodd" stroke="none" />
  </g>
</svg>