<?xml version="1.0" encoding="utf-8"?>
<svg width="512px" height="512px" viewBox="0 0 512 512" version="1.1" xmlns:xlink="http://www.w3.org/1999/xlink" xmlns="http://www.w3.org/2000/svg">
  <defs>
    <path d="M512 0L512 0L512 512L0 512L0 0L512 0Z" id="path_1" />
    <clipPath id="clip_1">
      <use xlink:href="#path_1" clip-rule="evenodd" fill-rule="evenodd" />
    </clipPath>
  </defs>
  <g id="personblack">
    <g id="Frame">
      <path d="M512 0L512 0L512 512L0 512L0 0L512 0Z" id="Frame" fill="#FFFFFF" fill-opacity="0" stroke="none" />
    </g>
    <path d="M208 48C208 21.4903 229.49 0 256 0C282.51 0 304 21.4903 304 48C304 74.5097 282.51 96 256 96C229.49 96 208 74.5097 208 48L208 48ZM247.976 352L247.976 480C247.976 497.7 233.676 512 215.976 512C198.276 512 183.976 497.7 183.976 480L183.976 256.9L155.376 304.5C146.276 319.6 126.576 324.5 111.476 315.4C96.3762 306.3 91.4762 286.6 100.576 271.5L158.876 174.5C176.276 145.6 207.476 127.9 241.176 127.9L270.876 127.9C304.576 127.9 335.776 145.6 353.176 174.5L411.476 271.5C420.576 286.6 415.676 306.3 400.576 315.4C385.476 324.5 365.776 319.6 356.676 304.5L327.976 256.9L327.976 480C327.976 497.7 313.676 512 295.976 512C278.276 512 263.976 497.7 263.976 480L263.976 352L247.976 352L247.976 352Z" id="Shape" fill="#000000" fill-rule="evenodd" stroke="none" />
  </g>
</svg>