<?xml version="1.0" encoding="utf-8"?>
<svg width="512px" height="512px" viewBox="0 0 512 512" version="1.1" xmlns:xlink="http://www.w3.org/1999/xlink" xmlns="http://www.w3.org/2000/svg">
  <defs>
    <path d="M512 0L512 0L512 512L0 512L0 0L512 0Z" id="path_1" />
    <clipPath id="clip_1">
      <use xlink:href="#path_1" clip-rule="evenodd" fill-rule="evenodd" />
    </clipPath>
  </defs>
  <g id="run">
    <g id="Frame">
      <path d="M512 0L512 0L512 512L0 512L0 0L512 0Z" id="Frame" fill="#FFFFFF" fill-opacity="0" stroke="none" />
      <path d="M368 47.9949C368 21.4881 346.51 0 320 0C293.49 0 272 21.4881 272 47.9949C272 74.5018 293.49 95.9899 320 95.9899C346.51 95.9899 368 74.5018 368 47.9949L368 47.9949ZM173.7 175.481C183.6 165.582 197.1 159.983 211.2 159.983C213.1 159.983 215 160.083 216.8 160.283L185.6 253.973C176.3 281.97 187.3 312.767 212.4 328.465L298.6 382.36L273.2 471.15C268.3 488.148 278.2 505.846 295.2 510.746C312.2 515.645 329.9 505.747 334.8 488.748L363.5 388.359C369.4 367.761 360.9 345.763 342.8 334.465L286 298.968L316.9 216.577L322 228.876C337 264.672 371.9 287.97 410.7 287.97L432 287.97C449.7 287.97 464 273.671 464 255.973C464 238.275 449.7 223.976 432 223.976L410.7 223.976C397.8 223.976 386.1 216.177 381.2 204.278L374.9 189.28C360.3 154.184 330.8 127.387 294.4 116.188L245.7 101.189C234.6 97.7897 223 95.9899 211.3 95.9899C180.3 95.9899 150.5 108.289 128.6 130.286L105.4 153.384C92.8999 165.882 92.8999 186.18 105.4 198.679C117.9 211.178 138.2 211.178 150.7 198.679L173.8 175.581L173.7 175.481ZM139.2 351.963L80 351.963C62.3 351.963 48 366.261 48 383.96C48 401.658 62.3 415.956 80 415.956L149.6 415.956C168.6 415.956 185.8 404.757 193.5 387.459L205 361.562L195.5 355.563C178 344.664 165 328.765 157.6 310.667L139.2 351.963L139.2 351.963Z" id="Shape" fill="#FFFFFF" fill-rule="evenodd" stroke="none" clip-path="url(#clip_1)" />
    </g>
  </g>
</svg>