<?xml version="1.0" encoding="utf-8"?>
<svg width="512px" height="512px" viewBox="0 0 512 512" version="1.1" xmlns:xlink="http://www.w3.org/1999/xlink" xmlns="http://www.w3.org/2000/svg">
  <defs>
    <path d="M512 0L512 0L512 512L0 512L0 0L512 0Z" id="path_1" />
    <clipPath id="clip_1">
      <use xlink:href="#path_1" clip-rule="evenodd" fill-rule="evenodd" />
    </clipPath>
  </defs>
  <g id="user">
    <g id="Frame">
      <path d="M512 0L512 0L512 512L0 512L0 0L512 0Z" id="Frame" fill="none" stroke="none" />
      <g id="Group" transform="translate(96 115)" clip-path="url(#clip_1)">
        <path d="M94.6589 65.7574C94.6589 29.4406 124.1 0 160.416 0C196.733 0 226.174 29.4406 226.174 65.7574C226.174 102.074 196.733 131.515 160.416 131.515C124.1 131.515 94.6589 102.074 94.6589 65.7574" id="Shape-Path" fill="#FFFFFF" stroke="none" />
        <path d="M0 283.667L320 283.667L293.091 239.018C269.254 199.534 226.511 175.353 180.344 175.353L139.656 175.353C93.4889 175.353 50.747 199.534 26.9093 239.018L0 283.667L0 283.667Z" id="Shape-Path" fill="#FFFFFF" fill-rule="evenodd" stroke="none" />
      </g>
    </g>
  </g>
</svg>